<?xml version="1.0" standalone="no"?><!DOCTYPE svg PUBLIC "-//W3C//DTD SVG 1.1//EN" "http://www.w3.org/Graphics/SVG/1.1/DTD/svg11.dtd"><svg t="1618889137022" class="icon" viewBox="0 0 1024 1024" version="1.1" xmlns="http://www.w3.org/2000/svg" p-id="2788" xmlns:xlink="http://www.w3.org/1999/xlink" width="200" height="200"><defs><style type="text/css"></style></defs><path d="M239 64c46.7 0 90.7 18.2 123.7 51.3S414 192.3 414 239c0 39.6-0.1 118.6-0.1 174.9-56.3 0-135.3 0.1-174.9 0.1-46.7 0-90.7-18.2-123.7-51.3S64 285.7 64 239s18.2-90.7 51.3-123.7S192.3 64 239 64m0-64C107 0 0 107 0 239s107 239 239 239c66 0 238.8-0.1 238.8-0.1S478 305 478 239C478 107 371 0 239 0zM785 64c46.7 0 90.7 18.2 123.7 51.3S960 192.3 960 239s-18.2 90.7-51.3 123.7S831.7 414 785 414c-39.6 0-118.6-0.1-174.9-0.1-0.1-56.3-0.1-135.3-0.1-174.9 0-46.7 18.2-90.7 51.3-123.7S738.3 64 785 64m0-64C653 0 546 107 546 239c0 66 0.2 238.9 0.2 238.9s172.8 0.1 238.8 0.1c132 0 239-107 239-239S917 0 785 0zM239 610c39.6 0 118.6 0.1 174.9 0.1 0.1 56.3 0.1 135.3 0.1 174.9 0 46.7-18.2 90.7-51.3 123.7S285.7 960 239 960s-90.7-18.2-123.7-51.3S64 831.7 64 785s18.2-90.7 51.3-123.7S192.3 610 239 610m0-64C107 546 0 653 0 785s107 239 239 239 239-107 239-239c0-66-0.2-238.9-0.2-238.9S305 546 239 546zM785 1024c-63.8 0-123.9-24.9-169-70-45.1-45.1-70-105.2-70-169 0-56.5 0.2-205.4 0.2-206.9 0-17.7 14.3-32 32-32s32 14.4 32 32c0 1.5-0.2 150.4-0.2 206.8 0 96.5 78.5 175 175 175s175-78.5 175-175-78.5-175-175-175h-48.3c-17.7 0-32-14.3-32-32s14.3-32 32-32H785c63.8 0 123.9 24.9 169 70 45.1 45.1 70 105.2 70 169s-24.9 123.9-70 169c-45.1 45.2-105.2 70.1-169 70.1z" fill="" p-id="2789"></path></svg>